<svg width="1120" height="716" viewBox="0 0 1120 716" fill="none" xmlns="http://www.w3.org/2000/svg">
<path d="M1001 106.5L905.32 8.98883C899.678 3.2393 891.962 0 883.907 0H703C686.431 0 673 13.4315 673 30V195C673 211.569 686.431 225 703 225H1095.79C1104.7 225 1109.16 214.208 1102.84 207.914L1001 106.5Z" fill="#62E236"/>
<path d="M553 106.5L457.32 8.98883C451.678 3.2393 443.962 0 435.907 0H255C238.431 0 225 13.4315 225 30V195C225 211.569 238.431 225 255 225H647.786C656.705 225 661.162 214.208 654.842 207.914L553 106.5Z" fill="#62E236"/>
<path d="M925 266H1090C1106.57 266 1120 279.431 1120 296V686C1120 702.569 1106.57 716 1090 716H925C908.431 716 895 702.569 895 686V296C895 279.431 908.431 266 925 266Z" fill="#62E236"/>
<path d="M478 266H643C659.569 266 673 279.431 673 296V686C673 702.569 659.569 716 643 716H478C461.431 716 448 702.569 448 686V296C448 279.431 461.431 266 478 266Z" fill="#62E236"/>
<path d="M31 266H196C212.569 266 226 279.431 226 296V535C226 551.569 212.569 565 196 565H31C14.4315 565 1 551.569 1 535V296C1 279.431 14.4315 266 31 266Z" fill="#62E236"/>
<path d="M31 615H196C212.569 615 226 628.431 226 645V685C226 701.569 212.569 715 196 715H31C14.4315 715 1 701.569 1 685V645C1 628.431 14.4315 615 31 615Z" fill="#62E236"/>
</svg>
