<svg width="2481" height="484" viewBox="0 0 2481 484" fill="none" xmlns="http://www.w3.org/2000/svg">
<g clip-path="url(#clip0_334_778)">
<path d="M425.425 87.2179L384.761 45.8165C382.364 43.3753 379.084 42 375.661 42H298.775C291.734 42 286.025 47.7028 286.025 54.7374V124.793C286.025 131.828 291.734 137.531 298.775 137.531H465.711C469.498 137.531 471.393 132.949 468.707 130.276L425.425 87.2179Z" fill="#62E236"/>
<path d="M235.025 87.2179L194.361 45.8165C191.963 43.3753 188.684 42 185.26 42H108.375C101.333 42 95.625 47.7028 95.625 54.7374V124.793C95.625 131.828 101.333 137.531 108.375 137.531H275.309C279.1 137.531 280.994 132.949 278.308 130.276L235.025 87.2179Z" fill="#62E236"/>
<path d="M393.125 154.938H463.25C470.292 154.938 476 160.641 476 167.676V333.262C476 340.297 470.292 346 463.25 346H393.125C386.083 346 380.375 340.297 380.375 333.262V167.676C380.375 160.641 386.083 154.938 393.125 154.938Z" fill="#62E236"/>
<path d="M203.15 154.938H273.275C280.317 154.938 286.025 160.641 286.025 167.676V333.262C286.025 340.297 280.317 346 273.275 346H203.15C196.109 346 190.4 340.297 190.4 333.262V167.676C190.4 160.641 196.109 154.938 203.15 154.938Z" fill="#62E236"/>
<path d="M13.1758 154.938H83.3008C90.3424 154.938 96.0508 160.641 96.0508 167.676V269.151C96.0508 276.185 90.3424 281.888 83.3008 281.888H13.1758C6.13415 281.888 0.425781 276.185 0.425781 269.151V167.676C0.425781 160.641 6.13415 154.938 13.1758 154.938Z" fill="#62E236"/>
<path d="M13.1758 303.117H83.3008C90.3424 303.117 96.0508 308.82 96.0508 315.855V332.838C96.0508 339.873 90.3424 345.575 83.3008 345.575H13.1758C6.13415 345.575 0.425781 339.873 0.425781 332.838V315.855C0.425781 308.82 6.13415 303.117 13.1758 303.117Z" fill="#62E236"/>
</g>
<path d="M567.4 268.51C567.4 300.639 579.852 316.703 604.754 316.703C629.656 316.703 642.107 300.639 642.107 268.51C642.107 237.162 629.656 221.488 604.754 221.488C579.852 221.488 567.4 237.162 567.4 268.51ZM528.582 269.096C528.582 217.533 553.973 191.752 604.754 191.752C655.535 191.752 680.926 217.533 680.926 269.096C680.926 320.561 655.535 346.293 604.754 346.293C554.168 346.293 528.777 320.561 528.582 269.096ZM697.039 192.191H736.15L756.072 299.271L791.668 192.191H824.92L863.299 299.271L880.584 192.191H921.014L880.877 346H844.402L808.221 236.869L771.6 346H734.539L697.039 192.191ZM1009.49 192.191C1056.17 192.191 1079.51 216.02 1079.51 263.676C1079.51 270.023 1079.07 276.371 1078.19 282.719H976.092C976.092 304.398 992.01 315.238 1023.85 315.238C1039.37 315.238 1054.9 313.773 1070.43 310.844V341.605C1056.85 344.535 1040.35 346 1020.92 346C965.154 346 937.273 319.779 937.273 267.338C937.273 217.24 961.346 192.191 1009.49 192.191ZM976.092 255.766H1041.72V254.594C1041.72 233.305 1030.97 222.66 1009.49 222.66C988.982 222.66 977.85 233.695 976.092 255.766ZM1345.23 337.211C1327.17 344.047 1306.66 347.465 1283.71 347.465C1208.51 347.465 1170.92 311.088 1170.92 238.334C1170.92 169.486 1208.51 135.062 1283.71 135.062C1306.66 135.062 1327.17 138.48 1345.23 145.316V180.473C1327.17 172.66 1307.63 168.754 1286.64 168.754C1236.35 168.754 1211.2 191.947 1211.2 238.334C1211.2 288.627 1236.35 313.773 1286.64 313.773C1307.63 313.773 1327.17 309.867 1345.23 302.055V337.211ZM1409.69 268.51C1409.69 300.639 1422.14 316.703 1447.04 316.703C1471.94 316.703 1484.39 300.639 1484.39 268.51C1484.39 237.162 1471.94 221.488 1447.04 221.488C1422.14 221.488 1409.69 237.162 1409.69 268.51ZM1370.87 269.096C1370.87 217.533 1396.26 191.752 1447.04 191.752C1497.82 191.752 1523.21 217.533 1523.21 269.096C1523.21 320.561 1497.82 346.293 1447.04 346.293C1396.45 346.293 1371.06 320.561 1370.87 269.096ZM1552.51 346V192.191H1582.54L1587.08 214.457C1600.85 199.613 1617.4 192.191 1636.74 192.191C1656.07 192.191 1669.3 199.223 1676.43 213.285C1692.16 199.223 1708.61 192.191 1725.8 192.191C1761.15 192.191 1778.83 211.674 1778.83 250.639V346H1740.01V249.174C1740.01 232.084 1732.29 223.539 1716.86 223.539C1705.34 223.539 1694.26 228.715 1683.61 239.066V346H1644.79V249.613C1644.79 232.23 1637.66 223.539 1623.41 223.539C1612.08 223.539 1601.38 228.715 1591.33 239.066V346H1552.51ZM1854.41 305.863C1864.08 311.137 1874.48 313.773 1885.61 313.773C1908.76 313.773 1920.33 297.514 1920.33 264.994C1920.33 237.357 1907.54 223.539 1881.95 223.539C1870.92 223.539 1861.74 224.223 1854.41 225.59V305.863ZM1815.59 198.49C1836 194.291 1857.59 192.191 1880.34 192.191C1932.59 192.191 1958.71 216.557 1958.71 265.287C1958.71 319.096 1934.39 346 1885.76 346C1875.41 346 1864.96 343.559 1854.41 338.676V401.664H1815.59V198.49ZM1980.83 298.1C1980.83 267.533 2003.09 252.25 2047.62 252.25C2058.07 252.25 2068.52 253.227 2078.97 255.18V243.607C2078.97 229.838 2069.06 222.953 2049.24 222.953C2032.44 222.953 2013.79 225.395 1993.28 230.277V199.516C2013.79 194.633 2032.44 192.191 2049.24 192.191C2094.94 192.191 2117.79 209.086 2117.79 242.875V346H2095.23L2081.46 332.23C2068.08 341.41 2053.34 346 2037.22 346C1999.63 346 1980.83 330.033 1980.83 298.1ZM2078.97 281.547C2069.21 279.594 2058.76 278.617 2047.62 278.617C2028.97 278.617 2019.65 284.965 2019.65 297.66C2019.65 311.332 2027.46 318.168 2043.08 318.168C2055.97 318.168 2067.94 314.164 2078.97 306.156V281.547ZM2154.56 346V192.191H2184.59L2189.42 214.75C2204.17 199.711 2220.96 192.191 2239.81 192.191C2276.24 192.191 2294.45 211.137 2294.45 249.027V346H2255.63V249.027C2255.63 232.035 2247.19 223.539 2230.29 223.539C2217.69 223.539 2205.39 228.568 2193.38 238.627V346H2154.56ZM2312.91 192.191H2354.07L2392.89 302.934L2430.83 192.191H2471.26L2407.39 350.541C2396.06 378.471 2377.95 398.344 2353.04 410.16L2334.29 383.646C2351.48 376.127 2363.98 363.871 2371.79 346.879L2312.91 192.191Z" fill="white"/>
<defs>
<clipPath id="clip0_334_778">
<rect width="476" height="304" fill="white" transform="translate(0 42)"/>
</clipPath>
</defs>
</svg>
