<svg width="18" height="19" viewBox="0 0 18 19" fill="none" xmlns="http://www.w3.org/2000/svg">
<path fill-rule="evenodd" clip-rule="evenodd" d="M13 0.259766H5C2.23858 0.259766 0 2.49835 0 5.25977V13.2598C0 16.0212 2.23858 18.2598 5 18.2598H13C15.7614 18.2598 18 16.0212 18 13.2598V5.25977C18 2.49835 15.7614 0.259766 13 0.259766ZM16.25 13.2598C16.2445 15.0524 14.7926 16.5043 13 16.5098H5C3.20735 16.5043 1.75549 15.0524 1.75 13.2598V5.25977C1.75549 3.46712 3.20735 2.01526 5 2.00977H13C14.7926 2.01526 16.2445 3.46712 16.25 5.25977V13.2598ZM13.75 5.50977C14.3023 5.50977 14.75 5.06205 14.75 4.50977C14.75 3.95749 14.3023 3.50977 13.75 3.50977C13.1977 3.50977 12.75 3.95749 12.75 4.50977C12.75 5.06205 13.1977 5.50977 13.75 5.50977ZM9 4.75977C6.51472 4.75977 4.5 6.77449 4.5 9.25977C4.5 11.7451 6.51472 13.7598 9 13.7598C11.4853 13.7598 13.5 11.7451 13.5 9.25977C13.5027 8.06547 13.0294 6.91934 12.1849 6.07485C11.3404 5.23036 10.1943 4.75711 9 4.75977ZM6.25 9.25977C6.25 10.7786 7.4812 12.0098 9 12.0098C10.5188 12.0098 11.75 10.7786 11.75 9.25977C11.75 7.74097 10.5188 6.50977 9 6.50977C7.4812 6.50977 6.25 7.74097 6.25 9.25977Z" fill="#FAFAFA"/>
</svg>
