<svg width="20" height="23" viewBox="0 0 20 23" fill="none" xmlns="http://www.w3.org/2000/svg">
<path d="M17.5094 5.37494C17.3536 5.29819 17.202 5.21407 17.0551 5.12287C16.6279 4.85359 16.2361 4.5363 15.8884 4.17783C15.0183 3.22867 14.6933 2.26576 14.5736 1.59158H14.5784C14.4784 1.03199 14.5198 0.669922 14.526 0.669922H10.563V15.2799C10.563 15.4761 10.563 15.67 10.5543 15.8615C10.5543 15.8854 10.5519 15.9074 10.5505 15.933C10.5505 15.9436 10.5505 15.9546 10.5481 15.9656C10.5481 15.9683 10.5481 15.9711 10.5481 15.9738C10.5063 16.498 10.33 17.0044 10.0348 17.4484C9.73956 17.8925 9.3344 18.2605 8.85495 18.5202C8.35526 18.7912 7.7901 18.9334 7.21521 18.9327C5.36875 18.9327 3.87227 17.4972 3.87227 15.7245C3.87227 13.9518 5.36875 12.5163 7.21521 12.5163C7.56473 12.516 7.9121 12.5685 8.24443 12.6717L8.24924 8.82464C7.24038 8.7004 6.21546 8.77684 5.23914 9.04914C4.26282 9.32144 3.35628 9.78369 2.57672 10.4067C1.89365 10.9726 1.31938 11.6477 0.879775 12.4018C0.712483 12.6767 0.0812958 13.7817 0.00486099 15.5751C-0.0432112 16.593 0.27743 17.6476 0.4303 18.0834V18.0926C0.526444 18.3492 0.899003 19.2251 1.50615 19.9634C1.99574 20.5557 2.57417 21.0759 3.22281 21.5075V21.4983L3.23243 21.5075C5.15099 22.7504 7.27818 22.6688 7.27818 22.6688C7.64641 22.6546 8.87995 22.6688 10.2808 22.0359C11.8345 21.3342 12.719 20.2888 12.719 20.2888C13.2841 19.6642 13.7334 18.9523 14.0477 18.1838C14.4063 17.2851 14.526 16.2071 14.526 15.7763V8.02535C14.5741 8.05285 15.2144 8.45662 15.2144 8.45662C15.2144 8.45662 16.1369 9.02034 17.5762 9.38745C18.6088 9.64868 20 9.70368 20 9.70368V5.95287C19.5125 6.00328 18.5227 5.85662 17.5094 5.37494Z" fill="white"/>
</svg>
